<?xml version="1.0" encoding="UTF-8" standalone="no"?>
<svg
   xmlns:dc="http://purl.org/dc/elements/1.1/"
   xmlns:cc="http://creativecommons.org/ns#"
   xmlns:rdf="http://www.w3.org/1999/02/22-rdf-syntax-ns#"
   xmlns:svg="http://www.w3.org/2000/svg"
   xmlns="http://www.w3.org/2000/svg"
   xmlns:sodipodi="http://sodipodi.sourceforge.net/DTD/sodipodi-0.dtd"
   xmlns:inkscape="http://www.inkscape.org/namespaces/inkscape"
   id="Capa_1"
   style="enable-background:new 0 0 512 512;"
   version="1.1"
   viewBox="0 0 512 512"
   xml:space="preserve"
   sodipodi:docname="matcap-icon.svg"
   inkscape:version="0.92.3 (2405546, 2018-03-11)"><metadata
     id="metadata156"><rdf:RDF><cc:Work
         rdf:about=""><dc:format>image/svg+xml</dc:format><dc:type
           rdf:resource="http://purl.org/dc/dcmitype/StillImage" /><dc:title></dc:title></cc:Work></rdf:RDF></metadata><defs
     id="defs154" /><sodipodi:namedview
     pagecolor="#ffffff"
     bordercolor="#666666"
     borderopacity="1"
     objecttolerance="10"
     gridtolerance="10"
     guidetolerance="10"
     inkscape:pageopacity="0"
     inkscape:pageshadow="2"
     inkscape:window-width="1920"
     inkscape:window-height="1147"
     id="namedview152"
     showgrid="false"
     inkscape:zoom="1.8515625"
     inkscape:cx="205.50211"
     inkscape:cy="256"
     inkscape:window-x="1272"
     inkscape:window-y="-8"
     inkscape:window-maximized="1"
     inkscape:current-layer="Capa_1" /><path
     d="M362,116h-86h-40h-86c-55.23,0-100,44.77-100,100v77.27l0.7,0.53l411.3,0.54V216  C462,160.77,417.23,116,362,116z"
     style="fill:#ffccaa"
     id="path103" /><path
     d="M489.3,330.59C497.53,341.7,502,353.61,502,366c0,60.75-113.45,110-246,110S10,426.75,10,366  c0-12.39,4.47-24.3,12.7-35.41l28-36.79l0.41-0.53c19.66-25.82,33.06-55.85,39.17-87.72c2.08-10.87,6.83-21.15,13.71-29.47  c6.89-8.33,15.91-14.7,26.55-17.76c5.3-1.52,10.86-2.32,16.54-2.32h213c30.42,0,56.47,21.79,61.83,51.73  c2.58,14.39,6.83,28.38,12.64,41.69c5.8,13.31,13.16,25.94,21.95,37.62l5.5,7.3L489.3,330.59z"
     id="path105"
     style="fill:#e6e6e6" /><g
     id="g111"><path
       d="M296,36c11.05,0,20,8.95,20,20s-8.95,20-20,20s-20-8.95-20-20S284.95,36,296,36z"
       style="fill:#ff2a2a"
       id="path107" /><path
       d="M216,36c11.05,0,20,8.95,20,20s-8.95,20-20,20s-20-8.95-20-20S204.95,36,216,36z"
       style="fill:#ff2a2a"
       id="path109" /></g><path
     d="m 162.51477,280.04219 c 13.27129,0 24.04219,-10.7709 24.04219,-24.04219 0,-13.27129 -10.7709,-24.04219 -24.04219,-24.04219 -13.27129,0 -24.04219,10.7709 -24.04219,24.04219 0,13.27129 10.7709,24.04219 24.04219,24.04219 z"
     id="path113"
     inkscape:connector-curvature="0"
     style="fill:#feb756;stroke-width:2.40421939" /><path
     d="M497.288,324.574L472,290.995V216c0-60.654-49.346-110-110-110h-72.127l6.67-20.014C312.834,85.694,326,72.36,326,56  c0-16.542-13.458-30-30-30s-30,13.458-30,30c0,9.599,4.537,18.154,11.574,23.649L268.792,106h-25.584l-8.782-26.351  C241.463,74.154,246,65.599,246,56c0-16.542-13.458-30-30-30s-30,13.458-30,30c0,16.36,13.166,29.694,29.457,29.986l6.67,20.014H150  c-60.654,0-110,49.346-110,110v75.355l-25.257,33.178c-0.026,0.035-0.052,0.069-0.078,0.104C4.934,337.773,0,351.69,0,366  c0,33.414,28.143,64.284,79.243,86.924C127.386,474.254,190.16,486,256,486s128.614-11.746,176.757-33.076  C483.857,430.284,512,399.414,512,366C512,351.69,507.066,337.773,497.288,324.574z M296,46c5.514,0,10,4.486,10,10s-4.486,10-10,10  s-10-4.486-10-10S290.486,46,296,46z M206,56c0-5.514,4.486-10,10-10s10,4.486,10,10s-4.486,10-10,10S206,61.514,206,56z M150,126  h85.924c0.025,0,0.049,0.003,0.074,0.003c0.024,0,0.049-0.003,0.074-0.003h39.856c0.024,0,0.049,0.003,0.074,0.003  s0.049-0.003,0.074-0.003H362c49.626,0,90,40.374,90,90v45.952c-3.044-5.366-5.823-10.881-8.285-16.532  c-5.504-12.61-9.528-25.884-11.961-39.452C425.533,171.221,395.39,146,360.08,146h-213c-6.542,0-13.035,0.911-19.304,2.71  c-12.125,3.486-23.015,10.747-31.493,20.997c-7.938,9.601-13.411,21.345-15.825,33.96C76.623,223.674,69.653,243.091,60,261.016V216  C60,166.374,100.374,126,150,126z M424.656,434.639C379.669,454.569,318.196,466,256,466s-123.669-11.431-168.656-31.361  C44.546,415.677,20,390.659,20,366c0-9.912,3.599-19.806,10.698-29.406l27.916-36.681l0.452-0.586  c20.475-26.889,34.665-58.666,41.036-91.897c1.784-9.325,5.794-17.962,11.595-24.977c5.899-7.132,13.371-12.153,21.602-14.521  c4.47-1.282,9.106-1.933,13.782-1.933h213c25.611,0,47.475,18.291,51.987,43.495c2.709,15.106,7.189,29.886,13.315,43.92  c6.119,14.041,13.9,27.377,23.131,39.643l32.751,43.484C488.388,346.159,492,356.07,492,366  C492,390.659,467.454,415.677,424.656,434.639z"
     id="path119" /><g
     id="g121" /><g
     id="g123" /><g
     id="g125" /><g
     id="g127" /><g
     id="g129" /><g
     id="g131" /><g
     id="g133" /><g
     id="g135" /><g
     id="g137" /><g
     id="g139" /><g
     id="g141" /><g
     id="g143" /><g
     id="g145" /><g
     id="g147" /><g
     id="g149" /><path
     d="m 259.24051,280.04219 c 13.27129,0 24.04219,-10.7709 24.04219,-24.04219 0,-13.27129 -10.7709,-24.04219 -24.04219,-24.04219 -13.27129,0 -24.04219,10.7709 -24.04219,24.04219 0,13.27129 10.7709,24.04219 24.04219,24.04219 z"
     id="path113-6"
     inkscape:connector-curvature="0"
     style="fill:#feb756;stroke-width:2.40421939" /><path
     d="m 353.75527,280.04219 c 13.27129,0 24.04219,-10.7709 24.04219,-24.04219 0,-13.27129 -10.7709,-24.04219 -24.04219,-24.04219 -13.27129,0 -24.04219,10.7709 -24.04219,24.04219 0,13.27129 10.7709,24.04219 24.04219,24.04219 z"
     id="path113-65"
     inkscape:connector-curvature="0"
     style="fill:#feb756;stroke-width:2.40421939" /><path
     d="m 111.23207,384.27848 c 13.27129,0 24.04219,-10.7709 24.04219,-24.04219 0,-13.27129 -10.7709,-24.04219 -24.04219,-24.04219 -13.271286,0 -24.042185,10.7709 -24.042185,24.04219 0,13.27129 10.770899,24.04219 24.042185,24.04219 z"
     id="path113-0"
     inkscape:connector-curvature="0"
     style="fill:#feb756;stroke-width:2.40421939" /><path
     d="m 211.19832,384.27848 c 13.27129,0 24.04219,-10.7709 24.04219,-24.04219 0,-13.27129 -10.7709,-24.04219 -24.04219,-24.04219 -13.27129,0 -24.04219,10.7709 -24.04219,24.04219 0,13.27129 10.7709,24.04219 24.04219,24.04219 z"
     id="path113-6-6"
     inkscape:connector-curvature="0"
     style="fill:#feb756;stroke-width:2.40421939" /><path
     d="m 310.03375,384.27848 c 13.27129,0 24.04219,-10.7709 24.04219,-24.04219 0,-13.27129 -10.7709,-24.04219 -24.04219,-24.04219 -13.27129,0 -24.04219,10.7709 -24.04219,24.04219 0,13.27129 10.7709,24.04219 24.04219,24.04219 z"
     id="path113-65-9"
     inkscape:connector-curvature="0"
     style="fill:#feb756;stroke-width:2.40421939" /><path
     d="m 410.46413,384.27848 c 13.27129,0 24.04219,-10.7709 24.04219,-24.04219 0,-13.27129 -10.7709,-24.04219 -24.04219,-24.04219 -13.27129,0 -24.04219,10.7709 -24.04219,24.04219 0,13.27129 10.7709,24.04219 24.04219,24.04219 z"
     id="path113-65-9-7"
     inkscape:connector-curvature="0"
     style="fill:#feb756;stroke-width:2.40421939" /></svg>