<?xml version="1.0" encoding="UTF-8" standalone="no"?>
<svg
   xmlns:dc="http://purl.org/dc/elements/1.1/"
   xmlns:cc="http://creativecommons.org/ns#"
   xmlns:rdf="http://www.w3.org/1999/02/22-rdf-syntax-ns#"
   xmlns:svg="http://www.w3.org/2000/svg"
   xmlns="http://www.w3.org/2000/svg"
   xmlns:sodipodi="http://sodipodi.sourceforge.net/DTD/sodipodi-0.dtd"
   xmlns:inkscape="http://www.inkscape.org/namespaces/inkscape"
   enable-background="new 0 0 64 64"
   height="64px"
   id="Layer_1"
   version="1.1"
   viewBox="0 0 64 64"
   width="64px"
   xml:space="preserve"
   sodipodi:docname="rubl-icon.svg"
   inkscape:version="0.92.3 (2405546, 2018-03-11)"><metadata
     id="metadata4470"><rdf:RDF><cc:Work
         rdf:about=""><dc:format>image/svg+xml</dc:format><dc:type
           rdf:resource="http://purl.org/dc/dcmitype/StillImage" /><dc:title></dc:title></cc:Work></rdf:RDF></metadata><defs
     id="defs4468" /><sodipodi:namedview
     pagecolor="#ffffff"
     bordercolor="#666666"
     borderopacity="1"
     objecttolerance="10"
     gridtolerance="10"
     guidetolerance="10"
     inkscape:pageopacity="0"
     inkscape:pageshadow="2"
     inkscape:window-width="1920"
     inkscape:window-height="1147"
     id="namedview4466"
     showgrid="false"
     inkscape:zoom="7.40625"
     inkscape:cx="24.182912"
     inkscape:cy="42.512527"
     inkscape:window-x="1272"
     inkscape:window-y="-8"
     inkscape:window-maximized="1"
     inkscape:current-layer="Layer_1" /><g
     id="loan_money_1_"><g
       id="g4438"><g
         id="g4342"><rect
           fill="#FFD740"
           height="4"
           width="20"
           x="27"
           y="43"
           id="rect4326" /><rect
           fill="#FFE57F"
           height="4"
           width="9"
           x="27"
           y="43"
           id="rect4328" /><rect
           fill="#FFC400"
           height="1"
           width="20"
           x="27"
           y="46"
           id="rect4330" /><rect
           fill="#FFFFFF"
           height="3"
           width="1"
           x="28"
           y="43"
           id="rect4332" /><rect
           fill="#FFC400"
           height="3"
           width="1"
           x="40"
           y="43"
           id="rect4334" /><rect
           fill="#FFC400"
           height="3"
           width="1"
           x="42"
           y="43"
           id="rect4336" /><rect
           fill="#FFC400"
           height="3"
           width="1"
           x="44"
           y="43"
           id="rect4338" /><rect
           fill="#FFC400"
           height="3"
           width="1"
           x="46"
           y="43"
           id="rect4340" /></g><g
         id="g4360"><rect
           fill="#FFD740"
           height="4"
           width="20"
           x="26"
           y="39"
           id="rect4344" /><rect
           fill="#FFE57F"
           height="4"
           width="9"
           x="26"
           y="39"
           id="rect4346" /><rect
           fill="#FFC400"
           height="1"
           width="20"
           x="26"
           y="42"
           id="rect4348" /><rect
           fill="#FFFFFF"
           height="3"
           width="1"
           x="27"
           y="39"
           id="rect4350" /><rect
           fill="#FFC400"
           height="3"
           width="1"
           x="39"
           y="39"
           id="rect4352" /><rect
           fill="#FFC400"
           height="3"
           width="1"
           x="41"
           y="39"
           id="rect4354" /><rect
           fill="#FFC400"
           height="3"
           width="1"
           x="43"
           y="39"
           id="rect4356" /><rect
           fill="#FFC400"
           height="3"
           width="1"
           x="45"
           y="39"
           id="rect4358" /></g><g
         id="g4382"><g
           id="g4366"><path
             d="M30.229,23.695c-3.703-3.704-3.703-9.73,0-13.436c3.705-3.703,9.731-3.703,13.436,0      c3.704,3.705,3.704,9.731,0,13.436S33.934,27.399,30.229,23.695z"
             fill="#FFD740"
             id="path4362" /><path
             d="M37,8c4.963,0,9,4.037,9,9s-4.037,9-9,9s-9-4.037-9-9S32.037,8,37,8 M37,7c-5.523,0-10,4.478-10,10      s4.477,10,10,10s10-4.478,10-10S42.523,7,37,7L37,7z"
             fill="#FDD835"
             id="path4364" /></g><path
           d="M29.188,22.326c-1.566-3.646-0.876-8.027,2.101-11.006c3.133-3.132,7.82-3.736,11.568-1.84     c0-0.107,0.002-0.213,0.008-0.319c-3.852-2.358-8.949-1.882-12.283,1.452c-3.184,3.184-3.77,7.98-1.762,11.76     C28.942,22.354,29.064,22.336,29.188,22.326z"
           fill="#FFFFFF"
           id="path4368" /><g
           id="g4374"><path
             d="M37,24.5c-4.136,0-7.5-3.364-7.5-7.5s3.364-7.5,7.5-7.5s7.5,3.364,7.5,7.5S41.136,24.5,37,24.5z"
             fill="#FFE57F"
             id="path4370" /><path
             d="M37,10c3.859,0,7,3.141,7,7s-3.141,7-7,7s-7-3.141-7-7S33.141,10,37,10 M37,9c-4.418,0-8,3.584-8,8      s3.582,8,8,8s8-3.584,8-8S41.418,9,37,9L37,9z"
             fill="#FFC400"
             id="path4372" /></g><g
           id="g4378" /><path
           d="M37,8c4.963,0,9,4.037,9,9s-4.037,9-9,9s-9-4.037-9-9S32.037,8,37,8 M37,7c-5.523,0-10,4.478-10,10     s4.477,10,10,10s10-4.478,10-10S42.523,7,37,7L37,7z"
           fill="#FFC400"
           id="path4380" /></g><g
         id="g4400"><rect
           fill="#FFD740"
           height="4"
           width="20"
           x="27"
           y="27"
           id="rect4384" /><rect
           fill="#FFE57F"
           height="4"
           width="9"
           x="27"
           y="27"
           id="rect4386" /><rect
           fill="#FFC400"
           height="1"
           width="20"
           x="27"
           y="30"
           id="rect4388" /><rect
           fill="#FFFFFF"
           height="3"
           width="1"
           x="28"
           y="27"
           id="rect4390" /><rect
           fill="#FFC400"
           height="3"
           width="1"
           x="40"
           y="27"
           id="rect4392" /><rect
           fill="#FFC400"
           height="3"
           width="1"
           x="42"
           y="27"
           id="rect4394" /><rect
           fill="#FFC400"
           height="3"
           width="1"
           x="44"
           y="27"
           id="rect4396" /><rect
           fill="#FFC400"
           height="3"
           width="1"
           x="46"
           y="27"
           id="rect4398" /></g><g
         id="g4418"><rect
           fill="#FFD740"
           height="4"
           width="20"
           x="26"
           y="31"
           id="rect4402" /><rect
           fill="#FFE57F"
           height="4"
           width="9"
           x="26"
           y="31"
           id="rect4404" /><rect
           fill="#FFC400"
           height="1"
           width="20"
           x="26"
           y="34"
           id="rect4406" /><rect
           fill="#FFFFFF"
           height="3"
           width="1"
           x="27"
           y="31"
           id="rect4408" /><rect
           fill="#FFC400"
           height="3"
           width="1"
           x="39"
           y="31"
           id="rect4410" /><rect
           fill="#FFC400"
           height="3"
           width="1"
           x="41"
           y="31"
           id="rect4412" /><rect
           fill="#FFC400"
           height="3"
           width="1"
           x="43"
           y="31"
           id="rect4414" /><rect
           fill="#FFC400"
           height="3"
           width="1"
           x="45"
           y="31"
           id="rect4416" /></g><g
         id="g4436"><rect
           fill="#FFD740"
           height="4"
           width="20"
           x="27"
           y="35"
           id="rect4420" /><rect
           fill="#FFE57F"
           height="4"
           width="9"
           x="27"
           y="35"
           id="rect4422" /><rect
           fill="#FFC400"
           height="1"
           width="20"
           x="27"
           y="38"
           id="rect4424" /><rect
           fill="#FFFFFF"
           height="3"
           width="1"
           x="28"
           y="35"
           id="rect4426" /><rect
           fill="#FFC400"
           height="3"
           width="1"
           x="40"
           y="35"
           id="rect4428" /><rect
           fill="#FFC400"
           height="3"
           width="1"
           x="42"
           y="35"
           id="rect4430" /><rect
           fill="#FFC400"
           height="3"
           width="1"
           x="44"
           y="35"
           id="rect4432" /><rect
           fill="#FFC400"
           height="3"
           width="1"
           x="46"
           y="35"
           id="rect4434" /></g></g><path
       d="M46,44.943c-0.029,0.008-0.062,0.016-0.062,0.016L44.944,45c0,0-1.348-5-7.007-5h-6.955   L29,39h-2v4h2v3v1h9h8V44.943z"
       fill="#37474F"
       opacity="0.1"
       id="path4440" /><path
       d="M25.938,47H44c0-1,0-6-7.063-6h-11c-1.656,0-3,1.344-3,3S24.281,47,25.938,47z"
       fill="#F4D0A1"
       id="path4442" /><g
       id="g4448"><path
         d="M43.959,46.166C41.514,46.659,39,47,39,47h5C44,46.827,43.996,46.531,43.959,46.166z"
         fill="#F4D0A1"
         id="path4444" /><path
         d="M55,40c-3.092,1.855-5,4-7,5.027c-0.64,0.328-1.792,0.648-3.062,0.932C44.979,46.293,45,46.64,45,47v1h-1    H28v-1h11l-9-2l1-3c0,0-2-3-8-3c-5,0-6,2-8,2H7v13h11l16.072,4.465c1.064,0.295,2.739,0.156,3.74-0.311L51,52l10-9    C62,42,60,37,55,40z"
         fill="#F4D0A1"
         id="path4446" /></g><path
       d="M55,42c-3,2-5,4-7,5.027c-0.629,0.323-1.754,0.539-3,0.684V48h-1h-4.633C39.139,48.001,39,48,39,48H28v-1h8   h8c0-1-0.523-4-7.063-4h-6.955C28.85,42.127,26.68,41,23,41c-5,0-6,2-8,2H7v11h11l16.072,4.465c1.064,0.295,2.739,0.156,3.74-0.311   L51,52l10-9C62,42,61,38,55,42z"
       fill="#EDBC7C"
       id="path4450" /><path
       d="M43,46c0-1.656-1.344-3-3-3s-2,1.344-2,3c0,0.353,0.021,0.686,0.061,1h4.756C42.928,46.686,43,46.353,43,46   z"
       fill="#F6D9B4"
       id="path4452" /><g
       id="g4462"><rect
         fill="#CFD8DC"
         height="15"
         width="3"
         x="12"
         y="40"
         id="rect4454" /><rect
         fill="#B0BEC5"
         height="11"
         width="3"
         x="12"
         y="44"
         id="rect4456" /><rect
         fill="#546E7A"
         height="19"
         width="9"
         x="3"
         y="39"
         id="rect4458" /><rect
         fill="#455A64"
         height="14"
         width="9"
         x="3"
         y="44"
         id="rect4460" /></g></g><text
     xml:space="preserve"
     style="font-style:normal;font-weight:normal;font-size:12.32910824px;line-height:1.25;font-family:sans-serif;letter-spacing:0px;word-spacing:0px;fill:#ffc400;fill-opacity:1;stroke:none;stroke-width:0.30822772"
     x="33.383442"
     y="21.333334"
     id="text4474"><tspan
       sodipodi:role="line"
       id="tspan4472"
       x="33.383442"
       y="21.333334"
       style="fill:#ffc400;stroke-width:0.30822772">ла</tspan></text>
<rect
     style="opacity:1;fill:#ffc400;fill-opacity:1;stroke-width:1.26730442"
     id="rect5281"
     width="3.5780587"
     height="0.87763715"
     x="33.485229"
     y="18.49789" /></svg>