<?xml version="1.0" encoding="UTF-8" standalone="no"?>
<svg
   xmlns:dc="http://purl.org/dc/elements/1.1/"
   xmlns:cc="http://creativecommons.org/ns#"
   xmlns:rdf="http://www.w3.org/1999/02/22-rdf-syntax-ns#"
   xmlns:svg="http://www.w3.org/2000/svg"
   xmlns="http://www.w3.org/2000/svg"
   xmlns:sodipodi="http://sodipodi.sourceforge.net/DTD/sodipodi-0.dtd"
   xmlns:inkscape="http://www.inkscape.org/namespaces/inkscape"
   enable-background="new 0 0 128 128"
   id="Слой_1"
   version="1.1"
   viewBox="0 0 128 128"
   xml:space="preserve"
   sodipodi:docname="icon-4.svg"
   inkscape:version="0.92.3 (2405546, 2018-03-11)"><metadata
     id="metadata15"><rdf:RDF><cc:Work
         rdf:about=""><dc:format>image/svg+xml</dc:format><dc:type
           rdf:resource="http://purl.org/dc/dcmitype/StillImage" /></cc:Work></rdf:RDF></metadata><defs
     id="defs13" /><sodipodi:namedview
     pagecolor="#ffffff"
     bordercolor="#666666"
     borderopacity="1"
     objecttolerance="10"
     gridtolerance="10"
     guidetolerance="10"
     inkscape:pageopacity="0"
     inkscape:pageshadow="2"
     inkscape:window-width="1920"
     inkscape:window-height="1027"
     id="namedview11"
     showgrid="false"
     inkscape:zoom="1.84375"
     inkscape:cx="-32"
     inkscape:cy="64"
     inkscape:window-x="-8"
     inkscape:window-y="-8"
     inkscape:window-maximized="1"
     inkscape:current-layer="Слой_1" /><g
     id="g8"><circle
       cx="84.199997"
       cy="84"
       r="3"
       id="circle2"
       style="fill:#6e4b93" /><path
       d="m 38.3,76.8 -7.1,5.7 6.8,8.8 h 6.8 l 1.7,-1.7 1.7,1.7 h 6.7 l 1.7,-1.7 1.7,1.7 h 5.5 C 66.4,97 72.2,101 79,101 88.4,101 96,93.4 96,84 96,74.6 88.4,67 79,67 72.2,67 66.4,71 63.6,76.8 Z M 59.8,87.3 56.5,84 53.2,87.3 H 49.9 L 46.6,84 43.3,87.3 H 40 l -3.2,-4.2 2.9,-2.3 h 22.6 c -0.2,1 -0.3,2.1 -0.3,3.2 0,1.1 0.1,2.2 0.3,3.2 H 59.8 Z M 79,71 c 7.2,0 13,5.8 13,13 0,7.2 -5.8,13 -13,13 -7.2,0 -13,-5.8 -13,-13 0,-7.2 5.8,-13 13,-13 z"
       id="path4"
       inkscape:connector-curvature="0"
       style="fill:#6e4b93" /><path
       d="M 111,12 H 92 V 29.2 L 64,1.2 1.2,64 9,71.8 l 8,-8 V 126 h 94 V 63.8 l 8,8 L 126.8,64 111,48.2 Z m -4,48 v 62 H 21 V 60 H 20.8 L 64,16.8 107.2,60 Z M 121.2,64 119,66.2 64,11.2 9,66.2 6.8,64 64,6.8 96,38.8 V 16 h 11 v 33.8 z"
       id="path6"
       inkscape:connector-curvature="0"
       style="fill:#6e4b93" /></g></svg>