<?xml version="1.0" encoding="UTF-8" standalone="no"?>
<svg
   xmlns:dc="http://purl.org/dc/elements/1.1/"
   xmlns:cc="http://creativecommons.org/ns#"
   xmlns:rdf="http://www.w3.org/1999/02/22-rdf-syntax-ns#"
   xmlns:svg="http://www.w3.org/2000/svg"
   xmlns="http://www.w3.org/2000/svg"
   xmlns:sodipodi="http://sodipodi.sourceforge.net/DTD/sodipodi-0.dtd"
   xmlns:inkscape="http://www.inkscape.org/namespaces/inkscape"
   style="enable-background:new 0 0 48 48;"
   version="1.1"
   viewBox="0 0 48 48"
   xml:space="preserve"
   id="svg69"
   sodipodi:docname="icon-8.svg"
   inkscape:version="0.92.3 (2405546, 2018-03-11)"><metadata
     id="metadata75"><rdf:RDF><cc:Work
         rdf:about=""><dc:format>image/svg+xml</dc:format><dc:type
           rdf:resource="http://purl.org/dc/dcmitype/StillImage" /></cc:Work></rdf:RDF></metadata><defs
     id="defs73" /><sodipodi:namedview
     pagecolor="#ffffff"
     bordercolor="#666666"
     borderopacity="1"
     objecttolerance="10"
     gridtolerance="10"
     guidetolerance="10"
     inkscape:pageopacity="0"
     inkscape:pageshadow="2"
     inkscape:window-width="1280"
     inkscape:window-height="971"
     id="namedview71"
     showgrid="false"
     inkscape:zoom="4.9166667"
     inkscape:cx="9.0807738"
     inkscape:cy="24"
     inkscape:window-x="-8"
     inkscape:window-y="-8"
     inkscape:window-maximized="1"
     inkscape:current-layer="svg69" /><g
     id="Icons"
     transform="translate(-2.2372881,-4.4745763)"><path
       d="M 38.52824,34.84484 H 9.44991 c -1.21976,0 -2.20851,-0.98886 -2.20851,-2.20851 V 15.3497 c 0,-1.21976 0.98886,-2.20865 2.20862,-2.20865 h 29.07822 c 1.21976,0 2.20862,0.98888 2.20862,2.20865 v 17.28651 c 0,1.21977 -0.98886,2.20863 -2.20862,2.20863 z"
       style="fill:none;stroke:#6e4b93;stroke-width:2;stroke-linecap:round;stroke-linejoin:round;stroke-miterlimit:10"
       id="path6"
       inkscape:connector-curvature="0" /><path
       d="m 15.5128,16.50497 h -3.92923 c -0.54759,0 -0.99157,0.44398 -0.99157,0.99158 v 3.14432 c 0,0.54759 0.44398,0.99147 0.99157,0.99147 h 3.92923 c 0.54759,0 0.99157,-0.44388 0.99157,-0.99147 v -3.14432 c 10e-6,-0.54759 -0.44398,-0.99158 -0.99157,-0.99158 z"
       style="fill:none;stroke:#6e4b93;stroke-width:0.5;stroke-linecap:round;stroke-linejoin:round;stroke-miterlimit:10"
       id="path8"
       inkscape:connector-curvature="0" /><path
       d="m 12.69984,16.50595 c -0.11219,0.2408 -0.24319,0.59608 -0.32255,1.03789 -0.07708,0.43007 -0.10284,0.94668 -0.01163,1.52416 0.07469,0.46529 0.22428,0.96787 0.49084,1.50079"
       style="fill:none;stroke:#6e4b93;stroke-width:0.5;stroke-linecap:round;stroke-linejoin:round;stroke-miterlimit:10"
       id="path10"
       inkscape:connector-curvature="0" /><line
       style="fill:none;stroke:#6e4b93;stroke-width:0.5;stroke-linecap:round;stroke-linejoin:round;stroke-miterlimit:10"
       x1="10.592"
       x2="16.504379"
       y1="20.568239"
       y2="20.568239"
       id="line12" /><line
       style="fill:none;stroke:#6e4b93;stroke-width:0.5;stroke-linecap:round;stroke-linejoin:round;stroke-miterlimit:10"
       x1="12.37729"
       x2="10.59124"
       y1="17.54384"
       y2="17.54384"
       id="line14" /><line
       style="fill:none;stroke:#6e4b93;stroke-width:0.5;stroke-linecap:round;stroke-linejoin:round;stroke-miterlimit:10"
       x1="12.36566"
       x2="10.59124"
       y1="19.068001"
       y2="19.068001"
       id="line16" /><path
       d="m 14.52318,16.50595 c 0.10991,0.2408 0.2408,0.59608 0.32038,1.03789 0.07708,0.43007 0.10284,0.94668 0.01163,1.52416 -0.07479,0.46529 -0.22449,0.96787 -0.49084,1.50079"
       style="fill:none;stroke:#6e4b93;stroke-width:0.5;stroke-linecap:round;stroke-linejoin:round;stroke-miterlimit:10"
       id="path18"
       inkscape:connector-curvature="0" /><line
       style="fill:none;stroke:#6e4b93;stroke-width:0.5;stroke-linecap:round;stroke-linejoin:round;stroke-miterlimit:10"
       x1="16.50329"
       x2="14.84356"
       y1="17.54384"
       y2="17.54384"
       id="line20" /><line
       style="fill:none;stroke:#6e4b93;stroke-width:0.5;stroke-linecap:round;stroke-linejoin:round;stroke-miterlimit:10"
       x1="16.50329"
       x2="14.85519"
       y1="19.068001"
       y2="19.068001"
       id="line22" /><line
       style="fill:none;stroke:#6e4b93;stroke-width:0.80000001;stroke-linecap:round;stroke-linejoin:round;stroke-miterlimit:10"
       x1="26.5714"
       x2="36.961891"
       y1="17.036261"
       y2="17.036261"
       id="line24" /><line
       style="fill:none;stroke:#6e4b93;stroke-width:0.80000001;stroke-linecap:round;stroke-linejoin:round;stroke-miterlimit:10"
       x1="10.48367"
       x2="22.00663"
       y1="28.73794"
       y2="28.73794"
       id="line26" /><path
       d="m 10.03696,24.39527 c 0,-0.06653 0.01565,-0.12632 0.04653,-0.1784 0.03098,-0.05197 0.07262,-0.09635 0.12469,-0.13404 0.05207,-0.03761 0.11241,-0.06534 0.18046,-0.08523 0.06816,-0.01892 0.13959,-0.0287 0.21373,-0.0287 0.07479,0 0.14568,0.0098 0.21438,0.0287 0.06805,0.01989 0.12796,0.04762 0.18003,0.08523 0.05262,0.0377 0.0936,0.08208 0.12513,0.13404 0.03044,0.05207 0.04599,0.11187 0.04599,0.1784 v 1.16736 c 0,0.06762 -0.01555,0.12741 -0.04599,0.17949 -0.03153,0.05207 -0.07251,0.09643 -0.12513,0.13404 -0.05207,0.03653 -0.11197,0.06531 -0.18003,0.08534 -0.06871,0.01881 -0.13959,0.02881 -0.21438,0.02881 -0.07414,0 -0.14557,-0.01 -0.21373,-0.02881 -0.06805,-0.02003 -0.12839,-0.04881 -0.18046,-0.08534 -0.05207,-0.03761 -0.09371,-0.08197 -0.12469,-0.13404 -0.03088,-0.05207 -0.04653,-0.11187 -0.04653,-0.17949 z m 0.37996,1.16737 c 0,0.04109 0.01718,0.07534 0.05196,0.10197 0.03446,0.02772 0.07936,0.04096 0.1335,0.04096 0.0549,0 0.09969,-0.01324 0.13415,-0.04096 0.03479,-0.02664 0.05196,-0.06088 0.05196,-0.10197 v -1.16736 c 0,-0.03992 -0.01718,-0.07425 -0.05196,-0.10189 -0.03446,-0.02672 -0.07925,-0.03998 -0.13415,-0.03998 -0.05414,0 -0.09904,0.01326 -0.1335,0.03998 -0.03479,0.02764 -0.05196,0.06197 -0.05196,0.10189 z"
       style="fill:#6e4b93"
       id="path28"
       inkscape:connector-curvature="0" /><path
       d="m 11.42099,24.39527 c 0,-0.06653 0.01555,-0.12632 0.04653,-0.1784 0.03109,-0.05197 0.07251,-0.09635 0.12459,-0.13404 0.05207,-0.03761 0.11241,-0.06534 0.18057,-0.08523 0.06805,-0.01892 0.13959,-0.0287 0.21373,-0.0287 0.07469,0 0.14557,0.0098 0.21438,0.0287 0.06816,0.01989 0.12796,0.04762 0.17992,0.08523 0.05273,0.0377 0.0936,0.08208 0.12513,0.13404 0.03055,0.05207 0.04609,0.11187 0.04609,0.1784 v 1.16736 c 0,0.06762 -0.01555,0.12741 -0.04609,0.17949 -0.03153,0.05207 -0.0724,0.09643 -0.12513,0.13404 -0.05197,0.03653 -0.11176,0.06531 -0.17992,0.08534 -0.06882,0.01881 -0.1397,0.02881 -0.21438,0.02881 -0.07414,0 -0.14568,-0.01 -0.21373,-0.02881 -0.06816,-0.02003 -0.1285,-0.04881 -0.18057,-0.08534 -0.05207,-0.03761 -0.09349,-0.08197 -0.12459,-0.13404 -0.03098,-0.05207 -0.04653,-0.11187 -0.04653,-0.17949 z m 0.37996,1.16737 c 0,0.04109 0.01718,0.07534 0.05207,0.10197 0.03424,0.02772 0.07914,0.04096 0.13339,0.04096 0.0549,0 0.09969,-0.01324 0.13404,-0.04096 0.0349,-0.02664 0.05207,-0.06088 0.05207,-0.10197 v -1.16736 c 0,-0.03992 -0.01718,-0.07425 -0.05207,-0.10189 -0.03435,-0.02672 -0.07914,-0.03998 -0.13404,-0.03998 -0.05425,0 -0.09915,0.01326 -0.13339,0.03998 -0.0349,0.02764 -0.05207,0.06197 -0.05207,0.10189 z"
       style="fill:#6e4b93"
       id="path30"
       inkscape:connector-curvature="0" /><path
       d="m 12.80491,24.39527 c 0,-0.06653 0.01555,-0.12632 0.04653,-0.1784 0.03109,-0.05197 0.07262,-0.09635 0.12469,-0.13404 0.05207,-0.03761 0.11241,-0.06534 0.18057,-0.08523 0.06806,-0.01892 0.13948,-0.0287 0.21362,-0.0287 0.0749,0 0.14578,0.0098 0.21438,0.0287 0.06816,0.01989 0.12796,0.04762 0.18003,0.08523 0.05262,0.0377 0.0936,0.08208 0.12524,0.13404 0.03033,0.05207 0.04588,0.11187 0.04588,0.1784 v 1.16736 c 0,0.06762 -0.01555,0.12741 -0.04588,0.17949 -0.03164,0.05207 -0.07262,0.09643 -0.12524,0.13404 -0.05207,0.03653 -0.11187,0.06531 -0.18003,0.08534 -0.0686,0.01881 -0.13948,0.02881 -0.21438,0.02881 -0.07414,0 -0.14557,-0.01 -0.21362,-0.02881 -0.06816,-0.02003 -0.1285,-0.04881 -0.18057,-0.08534 -0.05207,-0.03761 -0.0936,-0.08197 -0.12469,-0.13404 -0.03098,-0.05207 -0.04653,-0.11187 -0.04653,-0.17949 z m 0.38007,1.16737 c 0,0.04109 0.01707,0.07534 0.05196,0.10197 0.03424,0.02772 0.07925,0.04096 0.13339,0.04096 0.0549,0 0.09969,-0.01324 0.13415,-0.04096 0.0349,-0.02664 0.05196,-0.06088 0.05196,-0.10197 v -1.16736 c 0,-0.03992 -0.01707,-0.07425 -0.05196,-0.10189 -0.03446,-0.02672 -0.07925,-0.03998 -0.13415,-0.03998 -0.05414,0 -0.09915,0.01326 -0.13339,0.03998 -0.0349,0.02764 -0.05196,0.06197 -0.05196,0.10189 z"
       style="fill:#6e4b93"
       id="path32"
       inkscape:connector-curvature="0" /><path
       d="m 14.18894,24.39527 c 0,-0.06653 0.01555,-0.12632 0.04653,-0.1784 0.03109,-0.05197 0.07251,-0.09635 0.12459,-0.13404 0.05207,-0.03761 0.11241,-0.06534 0.18057,-0.08523 0.06805,-0.01892 0.13959,-0.0287 0.21384,-0.0287 0.07469,0 0.14557,0.0098 0.21427,0.0287 0.06816,0.01989 0.12785,0.04762 0.17992,0.08523 0.05262,0.0377 0.0936,0.08208 0.12524,0.13404 0.03044,0.05207 0.04599,0.11187 0.04599,0.1784 v 1.16736 c 0,0.06762 -0.01555,0.12741 -0.04599,0.17949 -0.03164,0.05207 -0.07262,0.09643 -0.12524,0.13404 -0.05207,0.03653 -0.11176,0.06531 -0.17992,0.08534 -0.06871,0.01881 -0.13959,0.02881 -0.21427,0.02881 -0.07425,0 -0.14579,-0.01 -0.21384,-0.02881 -0.06816,-0.02003 -0.1285,-0.04881 -0.18057,-0.08534 -0.05207,-0.03761 -0.09349,-0.08197 -0.12459,-0.13404 -0.03098,-0.05207 -0.04653,-0.11187 -0.04653,-0.17949 z m 0.37996,1.16737 c 0,0.04109 0.01718,0.07534 0.05207,0.10197 0.03435,0.02772 0.07914,0.04096 0.1335,0.04096 0.05479,0 0.09969,-0.01324 0.13393,-0.04096 0.0349,-0.02664 0.05207,-0.06088 0.05207,-0.10197 v -1.16736 c 0,-0.03992 -0.01718,-0.07425 -0.05207,-0.10189 -0.03425,-0.02672 -0.07914,-0.03998 -0.13393,-0.03998 -0.05436,0 -0.09915,0.01326 -0.1335,0.03998 -0.0349,0.02764 -0.05207,0.06197 -0.05207,0.10189 z"
       style="fill:#6e4b93"
       id="path34"
       inkscape:connector-curvature="0" /><path
       d="m 16.95646,24.39527 c 0,-0.06653 0.01544,-0.12632 0.04642,-0.1784 0.03098,-0.05197 0.07251,-0.09635 0.12458,-0.13404 0.05207,-0.03761 0.11252,-0.06534 0.18057,-0.08523 0.06816,-0.01892 0.13959,-0.0287 0.21384,-0.0287 0.07469,0 0.14557,0.0098 0.21427,0.0287 0.06805,0.01989 0.12796,0.04762 0.18003,0.08523 0.05251,0.0377 0.0936,0.08208 0.12513,0.13404 0.03055,0.05207 0.04588,0.11187 0.04588,0.1784 v 1.16736 c 0,0.06762 -0.01533,0.12741 -0.04588,0.17949 -0.03153,0.05207 -0.07262,0.09643 -0.12513,0.13404 -0.05207,0.03653 -0.11197,0.06531 -0.18003,0.08534 -0.06871,0.01881 -0.13959,0.02881 -0.21427,0.02881 -0.07425,0 -0.14568,-0.01 -0.21384,-0.02881 -0.06806,-0.02003 -0.1285,-0.04881 -0.18057,-0.08534 -0.05207,-0.03761 -0.0936,-0.08197 -0.12458,-0.13404 -0.03098,-0.05207 -0.04642,-0.11187 -0.04642,-0.17949 z m 0.37985,1.16737 c 0,0.04109 0.01718,0.07534 0.05207,0.10197 0.03436,0.02772 0.07925,0.04096 0.1335,0.04096 0.05468,0 0.09969,-0.01324 0.13404,-0.04096 0.03479,-0.02664 0.05207,-0.06088 0.05207,-0.10197 v -1.16736 c 0,-0.03992 -0.01729,-0.07425 -0.05207,-0.10189 -0.03435,-0.02672 -0.07936,-0.03998 -0.13404,-0.03998 -0.05425,0 -0.09915,0.01326 -0.1335,0.03998 -0.0349,0.02764 -0.05207,0.06197 -0.05207,0.10189 z"
       style="fill:#6e4b93"
       id="path36"
       inkscape:connector-curvature="0" /><path
       d="m 18.34038,24.39527 c 0,-0.06653 0.01555,-0.12632 0.04653,-0.1784 0.03098,-0.05197 0.07262,-0.09635 0.12469,-0.13404 0.05196,-0.03761 0.1123,-0.06534 0.18036,-0.08523 0.06816,-0.01892 0.1397,-0.0287 0.21384,-0.0287 0.07479,0 0.14568,0.0098 0.21438,0.0287 0.06806,0.01989 0.12796,0.04762 0.18003,0.08523 0.05262,0.0377 0.09349,0.08208 0.12502,0.13404 0.03055,0.05207 0.04609,0.11187 0.04609,0.1784 v 1.16736 c 0,0.06762 -0.01554,0.12741 -0.04609,0.17949 -0.03153,0.05207 -0.0724,0.09643 -0.12502,0.13404 -0.05207,0.03653 -0.11197,0.06531 -0.18003,0.08534 -0.06871,0.01881 -0.13959,0.02881 -0.21438,0.02881 -0.07414,0 -0.14568,-0.01 -0.21384,-0.02881 -0.06805,-0.02003 -0.12839,-0.04881 -0.18036,-0.08534 -0.05207,-0.03761 -0.09371,-0.08197 -0.12469,-0.13404 -0.03098,-0.05207 -0.04653,-0.11187 -0.04653,-0.17949 z m 0.37985,1.16737 c 0,0.04109 0.01729,0.07534 0.05207,0.10197 0.03435,0.02772 0.07925,0.04096 0.1335,0.04096 0.0549,0 0.09969,-0.01324 0.13404,-0.04096 0.03479,-0.02664 0.05207,-0.06088 0.05207,-0.10197 v -1.16736 c 0,-0.03992 -0.01728,-0.07425 -0.05207,-0.10189 -0.03435,-0.02672 -0.07914,-0.03998 -0.13404,-0.03998 -0.05425,0 -0.09915,0.01326 -0.1335,0.03998 -0.03479,0.02764 -0.05207,0.06197 -0.05207,0.10189 z"
       style="fill:#6e4b93"
       id="path38"
       inkscape:connector-curvature="0" /><path
       d="m 19.72441,24.39527 c 0,-0.06653 0.01555,-0.12632 0.04642,-0.1784 0.03109,-0.05197 0.07262,-0.09635 0.12469,-0.13404 0.05207,-0.03761 0.11241,-0.06534 0.18057,-0.08523 0.06805,-0.01892 0.13948,-0.0287 0.21362,-0.0287 0.0749,0 0.14579,0.0098 0.21438,0.0287 0.06816,0.01989 0.12795,0.04762 0.18003,0.08523 0.05262,0.0377 0.0936,0.08208 0.12513,0.13404 0.03044,0.05207 0.04598,0.11187 0.04598,0.1784 v 1.16736 c 0,0.06762 -0.01554,0.12741 -0.04598,0.17949 -0.03153,0.05207 -0.07251,0.09643 -0.12513,0.13404 -0.05207,0.03653 -0.11187,0.06531 -0.18003,0.08534 -0.0686,0.01881 -0.13948,0.02881 -0.21438,0.02881 -0.07414,0 -0.14557,-0.01 -0.21362,-0.02881 -0.06816,-0.02003 -0.1285,-0.04881 -0.18057,-0.08534 -0.05207,-0.03761 -0.0936,-0.08197 -0.12469,-0.13404 -0.03087,-0.05207 -0.04642,-0.11187 -0.04642,-0.17949 z m 0.37995,1.16737 c 0,0.04109 0.01707,0.07534 0.05207,0.10197 0.03424,0.02772 0.07914,0.04096 0.13328,0.04096 0.0549,0 0.0998,-0.01324 0.13415,-0.04096 0.0349,-0.02664 0.05207,-0.06088 0.05207,-0.10197 v -1.16736 c 0,-0.03992 -0.01718,-0.07425 -0.05207,-0.10189 -0.03435,-0.02672 -0.07925,-0.03998 -0.13415,-0.03998 -0.05414,0 -0.09904,0.01326 -0.13328,0.03998 -0.03501,0.02764 -0.05207,0.06197 -0.05207,0.10189 z"
       style="fill:#6e4b93"
       id="path40"
       inkscape:connector-curvature="0" /><path
       d="m 21.10833,24.39527 c 0,-0.06653 0.01554,-0.12632 0.04653,-0.1784 0.03109,-0.05197 0.07262,-0.09635 0.12459,-0.13404 0.05207,-0.03761 0.11241,-0.06534 0.18057,-0.08523 0.06806,-0.01892 0.13959,-0.0287 0.21373,-0.0287 0.0749,0 0.14578,0.0098 0.21438,0.0287 0.06816,0.01989 0.12796,0.04762 0.18003,0.08523 0.05262,0.0377 0.09349,0.08208 0.12513,0.13404 0.03044,0.05207 0.04599,0.11187 0.04599,0.1784 v 1.16736 c 0,0.06762 -0.01555,0.12741 -0.04599,0.17949 -0.03164,0.05207 -0.07251,0.09643 -0.12513,0.13404 -0.05207,0.03653 -0.11187,0.06531 -0.18003,0.08534 -0.0686,0.01881 -0.13948,0.02881 -0.21438,0.02881 -0.07414,0 -0.14568,-0.01 -0.21373,-0.02881 -0.06816,-0.02003 -0.1285,-0.04881 -0.18057,-0.08534 -0.05196,-0.03761 -0.09349,-0.08197 -0.12459,-0.13404 -0.03098,-0.05207 -0.04653,-0.11187 -0.04653,-0.17949 z m 0.37996,1.16737 c 0,0.04109 0.01718,0.07534 0.05207,0.10197 0.03424,0.02772 0.07914,0.04096 0.13339,0.04096 0.0549,0 0.09969,-0.01324 0.13404,-0.04096 0.03501,-0.02664 0.05207,-0.06088 0.05207,-0.10197 v -1.16736 c 0,-0.03992 -0.01707,-0.07425 -0.05207,-0.10189 -0.03435,-0.02672 -0.07914,-0.03998 -0.13404,-0.03998 -0.05425,0 -0.09915,0.01326 -0.13339,0.03998 -0.0349,0.02764 -0.05207,0.06197 -0.05207,0.10189 z"
       style="fill:#6e4b93"
       id="path42"
       inkscape:connector-curvature="0" /><path
       d="m 23.87585,24.39527 c 0,-0.06653 0.01544,-0.12632 0.04653,-0.1784 0.03087,-0.05197 0.0724,-0.09635 0.12448,-0.13404 0.05207,-0.03761 0.11252,-0.06534 0.18057,-0.08523 0.06816,-0.01892 0.13959,-0.0287 0.21384,-0.0287 0.07469,0 0.14557,0.0098 0.21438,0.0287 0.06805,0.01989 0.12774,0.04762 0.17981,0.08523 0.05262,0.0377 0.09371,0.08208 0.12524,0.13404 0.03055,0.05207 0.04598,0.11187 0.04598,0.1784 v 1.16736 c 0,0.06762 -0.01544,0.12741 -0.04598,0.17949 -0.03153,0.05207 -0.07262,0.09643 -0.12524,0.13404 -0.05207,0.03653 -0.11176,0.06531 -0.17981,0.08534 -0.06882,0.01881 -0.1397,0.02881 -0.21438,0.02881 -0.07425,0 -0.14568,-0.01 -0.21384,-0.02881 -0.06805,-0.02003 -0.1285,-0.04881 -0.18057,-0.08534 -0.05207,-0.03761 -0.0936,-0.08197 -0.12448,-0.13404 -0.03109,-0.05207 -0.04653,-0.11187 -0.04653,-0.17949 z m 0.37984,1.16737 c 0,0.04109 0.01718,0.07534 0.05207,0.10197 0.03435,0.02772 0.07914,0.04096 0.1335,0.04096 0.05479,0 0.09969,-0.01324 0.13404,-0.04096 0.03479,-0.02664 0.05207,-0.06088 0.05207,-0.10197 v -1.16736 c 0,-0.03992 -0.01728,-0.07425 -0.05207,-0.10189 -0.03435,-0.02672 -0.07925,-0.03998 -0.13404,-0.03998 -0.05436,0 -0.09915,0.01326 -0.1335,0.03998 -0.0349,0.02764 -0.05207,0.06197 -0.05207,0.10189 z"
       style="fill:#6e4b93"
       id="path44"
       inkscape:connector-curvature="0" /><path
       d="m 25.25977,24.39527 c 0,-0.06653 0.01544,-0.12632 0.04653,-0.1784 0.03098,-0.05197 0.07251,-0.09635 0.12459,-0.13404 0.05197,-0.03761 0.11252,-0.06534 0.18057,-0.08523 0.06816,-0.01892 0.13959,-0.0287 0.21373,-0.0287 0.07479,0 0.14568,0.0098 0.21438,0.0287 0.06805,0.01989 0.12795,0.04762 0.18003,0.08523 0.05251,0.0377 0.09349,0.08208 0.12513,0.13404 0.03044,0.05207 0.04588,0.11187 0.04588,0.1784 v 1.16736 c 0,0.06762 -0.01544,0.12741 -0.04588,0.17949 -0.03164,0.05207 -0.07262,0.09643 -0.12513,0.13404 -0.05207,0.03653 -0.11197,0.06531 -0.18003,0.08534 -0.06871,0.01881 -0.13959,0.02881 -0.21438,0.02881 -0.07414,0 -0.14557,-0.01 -0.21373,-0.02881 -0.06805,-0.02003 -0.12861,-0.04881 -0.18057,-0.08534 -0.05207,-0.03761 -0.0936,-0.08197 -0.12459,-0.13404 -0.03109,-0.05207 -0.04653,-0.11187 -0.04653,-0.17949 z m 0.37984,1.16737 c 0,0.04109 0.01729,0.07534 0.05207,0.10197 0.03435,0.02772 0.07925,0.04096 0.1335,0.04096 0.05479,0 0.09969,-0.01324 0.13404,-0.04096 0.0349,-0.02664 0.05207,-0.06088 0.05207,-0.10197 v -1.16736 c 0,-0.03992 -0.01718,-0.07425 -0.05207,-0.10189 -0.03435,-0.02672 -0.07925,-0.03998 -0.13404,-0.03998 -0.05425,0 -0.09915,0.01326 -0.1335,0.03998 -0.03479,0.02764 -0.05207,0.06197 -0.05207,0.10189 z"
       style="fill:#6e4b93"
       id="path46"
       inkscape:connector-curvature="0" /><path
       d="m 26.6438,24.39527 c 0,-0.06653 0.01554,-0.12632 0.04642,-0.1784 0.03098,-0.05197 0.07262,-0.09635 0.12469,-0.13404 0.05207,-0.03761 0.11241,-0.06534 0.18047,-0.08523 0.06816,-0.01892 0.13959,-0.0287 0.21384,-0.0287 0.07469,0 0.14557,0.0098 0.21427,0.0287 0.06805,0.01989 0.12796,0.04762 0.18003,0.08523 0.05262,0.0377 0.0936,0.08208 0.12513,0.13404 0.03055,0.05207 0.04609,0.11187 0.04609,0.1784 v 1.16736 c 0,0.06762 -0.01555,0.12741 -0.04609,0.17949 -0.03153,0.05207 -0.07251,0.09643 -0.12513,0.13404 -0.05207,0.03653 -0.11197,0.06531 -0.18003,0.08534 -0.06871,0.01881 -0.13959,0.02881 -0.21427,0.02881 -0.07425,0 -0.14568,-0.01 -0.21384,-0.02881 C 26.92732,25.94147 26.86699,25.91269 26.81491,25.87616 26.76284,25.83855 26.7212,25.79419 26.69022,25.74212 26.65934,25.69005 26.6438,25.63025 26.6438,25.56263 Z m 0.37985,1.16737 c 0,0.04109 0.01718,0.07534 0.05207,0.10197 0.03435,0.02772 0.07925,0.04096 0.1335,0.04096 0.0549,0 0.09969,-0.01324 0.13404,-0.04096 0.03479,-0.02664 0.05207,-0.06088 0.05207,-0.10197 v -1.16736 c 0,-0.03992 -0.01729,-0.07425 -0.05207,-0.10189 -0.03435,-0.02672 -0.07914,-0.03998 -0.13404,-0.03998 -0.05425,0 -0.09915,0.01326 -0.1335,0.03998 -0.0349,0.02764 -0.05207,0.06197 -0.05207,0.10189 z"
       style="fill:#6e4b93"
       id="path48"
       inkscape:connector-curvature="0" /><path
       d="m 28.02772,24.39527 c 0,-0.06653 0.01555,-0.12632 0.04653,-0.1784 0.03109,-0.05197 0.07262,-0.09635 0.12469,-0.13404 0.05196,-0.03761 0.1123,-0.06534 0.18057,-0.08523 0.06795,-0.01892 0.13948,-0.0287 0.21362,-0.0287 0.0749,0 0.14578,0.0098 0.21438,0.0287 0.06816,0.01989 0.12796,0.04762 0.18003,0.08523 0.05262,0.0377 0.09349,0.08208 0.12502,0.13404 0.03055,0.05207 0.04609,0.11187 0.04609,0.1784 v 1.16736 c 0,0.06762 -0.01554,0.12741 -0.04609,0.17949 -0.03153,0.05207 -0.0724,0.09643 -0.12502,0.13404 -0.05207,0.03653 -0.11187,0.06531 -0.18003,0.08534 -0.0686,0.01881 -0.13948,0.02881 -0.21438,0.02881 -0.07414,0 -0.14568,-0.01 -0.21362,-0.02881 -0.06827,-0.02003 -0.12861,-0.04881 -0.18057,-0.08534 -0.05207,-0.03761 -0.0936,-0.08197 -0.12469,-0.13404 -0.03098,-0.05207 -0.04653,-0.11187 -0.04653,-0.17949 z m 0.37995,1.16737 c 0,0.04109 0.01718,0.07534 0.05207,0.10197 0.03424,0.02772 0.07914,0.04096 0.13339,0.04096 0.0549,0 0.09969,-0.01324 0.13404,-0.04096 0.03501,-0.02664 0.05207,-0.06088 0.05207,-0.10197 v -1.16736 c 0,-0.03992 -0.01707,-0.07425 -0.05207,-0.10189 -0.03436,-0.02672 -0.07914,-0.03998 -0.13404,-0.03998 -0.05425,0 -0.09915,0.01326 -0.13339,0.03998 -0.0349,0.02764 -0.05207,0.06197 -0.05207,0.10189 z"
       style="fill:#6e4b93"
       id="path50"
       inkscape:connector-curvature="0" /><path
       d="m 30.79513,24.39527 c 0,-0.06653 0.01554,-0.12632 0.04664,-0.1784 0.03098,-0.05197 0.07251,-0.09635 0.12448,-0.13404 0.05207,-0.03761 0.11241,-0.06534 0.18057,-0.08523 0.06816,-0.01892 0.13948,-0.0287 0.21384,-0.0287 0.07469,0 0.14568,0.0098 0.21427,0.0287 0.06816,0.01989 0.12796,0.04762 0.17992,0.08523 0.05273,0.0377 0.09371,0.08208 0.12524,0.13404 0.03044,0.05207 0.04599,0.11187 0.04599,0.1784 v 1.16736 c 0,0.06762 -0.01555,0.12741 -0.04599,0.17949 -0.03153,0.05207 -0.07251,0.09643 -0.12524,0.13404 -0.05196,0.03653 -0.11176,0.06531 -0.17992,0.08534 -0.0686,0.01881 -0.13959,0.02881 -0.21427,0.02881 -0.07436,0 -0.14568,-0.01 -0.21384,-0.02881 -0.06816,-0.02003 -0.1285,-0.04881 -0.18057,-0.08534 -0.05196,-0.03761 -0.09349,-0.08197 -0.12448,-0.13404 -0.03109,-0.05207 -0.04664,-0.11187 -0.04664,-0.17949 z m 0.37995,1.16737 c 0,0.04109 0.01718,0.07534 0.05207,0.10197 0.03435,0.02772 0.07914,0.04096 0.1335,0.04096 0.05479,0 0.09969,-0.01324 0.13393,-0.04096 0.0349,-0.02664 0.05207,-0.06088 0.05207,-0.10197 v -1.16736 c 0,-0.03992 -0.01718,-0.07425 -0.05207,-0.10189 -0.03424,-0.02672 -0.07914,-0.03998 -0.13393,-0.03998 -0.05436,0 -0.09915,0.01326 -0.1335,0.03998 -0.0349,0.02764 -0.05207,0.06197 -0.05207,0.10189 z"
       style="fill:#6e4b93"
       id="path52"
       inkscape:connector-curvature="0" /><path
       d="m 32.17916,24.39527 c 0,-0.06653 0.01544,-0.12632 0.04653,-0.1784 0.03098,-0.05197 0.07251,-0.09635 0.12458,-0.13404 0.05207,-0.03761 0.11252,-0.06534 0.18057,-0.08523 0.06816,-0.01892 0.13959,-0.0287 0.21373,-0.0287 0.07479,0 0.14568,0.0098 0.21439,0.0287 0.06805,0.01989 0.12785,0.04762 0.17992,0.08523 0.05262,0.0377 0.09371,0.08208 0.12524,0.13404 0.03044,0.05207 0.04588,0.11187 0.04588,0.1784 v 1.16736 c 0,0.06762 -0.01543,0.12741 -0.04588,0.17949 -0.03152,0.05207 -0.07262,0.09643 -0.12524,0.13404 -0.05207,0.03653 -0.11187,0.06531 -0.17992,0.08534 -0.06871,0.01881 -0.13959,0.02881 -0.21439,0.02881 -0.07414,0 -0.14557,-0.01 -0.21373,-0.02881 -0.06805,-0.02003 -0.1285,-0.04881 -0.18057,-0.08534 -0.05207,-0.03761 -0.0936,-0.08197 -0.12458,-0.13404 -0.03109,-0.05207 -0.04653,-0.11187 -0.04653,-0.17949 z m 0.37984,1.16737 c 0,0.04109 0.01729,0.07534 0.05207,0.10197 0.03436,0.02772 0.07925,0.04096 0.1335,0.04096 0.05479,0 0.09969,-0.01324 0.13416,-0.04096 0.03479,-0.02664 0.05196,-0.06088 0.05196,-0.10197 v -1.16736 c 0,-0.03992 -0.01718,-0.07425 -0.05196,-0.10189 -0.03446,-0.02672 -0.07936,-0.03998 -0.13416,-0.03998 -0.05424,0 -0.09914,0.01326 -0.1335,0.03998 -0.03479,0.02764 -0.05207,0.06197 -0.05207,0.10189 z"
       style="fill:#6e4b93"
       id="path54"
       inkscape:connector-curvature="0" /><path
       d="m 33.56319,24.39527 c 0,-0.06653 0.01543,-0.12632 0.04653,-0.1784 0.03088,-0.05197 0.0724,-0.09635 0.12448,-0.13404 0.05207,-0.03761 0.11252,-0.06534 0.18057,-0.08523 0.06816,-0.01892 0.13959,-0.0287 0.21384,-0.0287 0.07468,0 0.14557,0.0098 0.21438,0.0287 0.06805,0.01989 0.12796,0.04762 0.17992,0.08523 0.05262,0.0377 0.0936,0.08208 0.12513,0.13404 0.03055,0.05207 0.04599,0.11187 0.04599,0.1784 v 1.16736 c 0,0.06762 -0.01544,0.12741 -0.04599,0.17949 -0.03153,0.05207 -0.07251,0.09643 -0.12513,0.13404 -0.05196,0.03653 -0.11187,0.06531 -0.17992,0.08534 -0.06882,0.01881 -0.1397,0.02881 -0.21438,0.02881 -0.07425,0 -0.14568,-0.01 -0.21384,-0.02881 -0.06805,-0.02003 -0.1285,-0.04881 -0.18057,-0.08534 -0.05207,-0.03761 -0.0936,-0.08197 -0.12448,-0.13404 -0.03109,-0.05207 -0.04653,-0.11187 -0.04653,-0.17949 z m 0.37985,1.16737 c 0,0.04109 0.01728,0.07534 0.05207,0.10197 0.03436,0.02772 0.07925,0.04096 0.1335,0.04096 0.05479,0 0.09969,-0.01324 0.13404,-0.04096 0.03479,-0.02664 0.05207,-0.06088 0.05207,-0.10197 v -1.16736 c 0,-0.03992 -0.01728,-0.07425 -0.05207,-0.10189 -0.03435,-0.02672 -0.07925,-0.03998 -0.13404,-0.03998 -0.05425,0 -0.09915,0.01326 -0.1335,0.03998 -0.03479,0.02764 -0.05207,0.06197 -0.05207,0.10189 z"
       style="fill:#6e4b93"
       id="path56"
       inkscape:connector-curvature="0" /><path
       d="m 34.94711,24.39527 c 0,-0.06653 0.01555,-0.12632 0.04653,-0.1784 0.03098,-0.05197 0.07262,-0.09635 0.12469,-0.13404 0.05207,-0.03761 0.11241,-0.06534 0.18047,-0.08523 0.06816,-0.01892 0.13959,-0.0287 0.21373,-0.0287 0.07479,0 0.14568,0.0098 0.21438,0.0287 0.06806,0.01989 0.12796,0.04762 0.18003,0.08523 0.05262,0.0377 0.0936,0.08208 0.12513,0.13404 0.03044,0.05207 0.04599,0.11187 0.04599,0.1784 v 1.16736 c 0,0.06762 -0.01555,0.12741 -0.04599,0.17949 -0.03153,0.05207 -0.07251,0.09643 -0.12513,0.13404 -0.05207,0.03653 -0.11197,0.06531 -0.18003,0.08534 -0.06871,0.01881 -0.13959,0.02881 -0.21438,0.02881 -0.07414,0 -0.14557,-0.01 -0.21373,-0.02881 -0.06805,-0.02003 -0.12839,-0.04881 -0.18047,-0.08534 -0.05207,-0.03761 -0.09371,-0.08197 -0.12469,-0.13404 -0.03098,-0.05207 -0.04653,-0.11187 -0.04653,-0.17949 z m 0.37984,1.16737 c 0,0.04109 0.01728,0.07534 0.05207,0.10197 0.03436,0.02772 0.07936,0.04096 0.1335,0.04096 0.0549,0 0.09969,-0.01324 0.13404,-0.04096 0.0349,-0.02664 0.05207,-0.06088 0.05207,-0.10197 v -1.16736 c 0,-0.03992 -0.01718,-0.07425 -0.05207,-0.10189 -0.03436,-0.02672 -0.07914,-0.03998 -0.13404,-0.03998 -0.05414,0 -0.09914,0.01326 -0.1335,0.03998 -0.03479,0.02764 -0.05207,0.06197 -0.05207,0.10189 z"
       style="fill:#6e4b93"
       id="path58"
       inkscape:connector-curvature="0" /></g><circle
     style="fill:#ffffff;stroke:#6e4b93;stroke-width:2;stroke-linecap:round;stroke-linejoin:round;stroke-miterlimit:10"
     id="path79"
     cx="31.830511"
     cy="28.677965"
     r="12" /><text
     xml:space="preserve"
     style="font-style:normal;font-weight:normal;font-size:18.14573097px;line-height:1.25;font-family:sans-serif;letter-spacing:0px;word-spacing:0px;fill:#6e4b93;fill-opacity:1;stroke:none"
     x="22.335749"
     y="34.976009"
     id="text83"><tspan
       sodipodi:role="line"
       id="tspan81"
       x="22.335749"
       y="34.976009"
       style="stroke-width:0.45364326">%</tspan></text>
</svg>