<?xml version="1.0" encoding="UTF-8" standalone="no"?>
<!-- Generator: Adobe Illustrator 16.0.0, SVG Export Plug-In . SVG Version: 6.00 Build 0)  -->

<svg
   xmlns:dc="http://purl.org/dc/elements/1.1/"
   xmlns:cc="http://creativecommons.org/ns#"
   xmlns:rdf="http://www.w3.org/1999/02/22-rdf-syntax-ns#"
   xmlns:svg="http://www.w3.org/2000/svg"
   xmlns="http://www.w3.org/2000/svg"
   xmlns:sodipodi="http://sodipodi.sourceforge.net/DTD/sodipodi-0.dtd"
   xmlns:inkscape="http://www.inkscape.org/namespaces/inkscape"
   version="1.1"
   id="Capa_1"
   x="0px"
   y="0px"
   width="636.06px"
   height="636.06px"
   viewBox="0 0 636.06 636.06"
   style="enable-background:new 0 0 636.06 636.06;"
   xml:space="preserve"
   sodipodi:docname="icon-5.svg"
   inkscape:version="0.92.3 (2405546, 2018-03-11)"><metadata
     id="metadata51"><rdf:RDF><cc:Work
         rdf:about=""><dc:format>image/svg+xml</dc:format><dc:type
           rdf:resource="http://purl.org/dc/dcmitype/StillImage" /><dc:title></dc:title></cc:Work></rdf:RDF></metadata><defs
     id="defs49" /><sodipodi:namedview
     pagecolor="#ffffff"
     bordercolor="#666666"
     borderopacity="1"
     objecttolerance="10"
     gridtolerance="10"
     guidetolerance="10"
     inkscape:pageopacity="0"
     inkscape:pageshadow="2"
     inkscape:window-width="1920"
     inkscape:window-height="1147"
     id="namedview47"
     showgrid="false"
     inkscape:zoom="0.37103418"
     inkscape:cx="-175.18602"
     inkscape:cy="318.03"
     inkscape:window-x="1272"
     inkscape:window-y="-8"
     inkscape:window-maximized="1"
     inkscape:current-layer="Capa_1" /><g
     id="g14"><g
       id="g12"><path
         d="m 462.497,445.668 c -12.681,0 -22.988,-10.288 -22.988,-22.999 0,-12.67 10.278,-22.979 22.988,-22.979 12.7,0 22.988,10.289 22.988,22.979 -0.019,12.711 -10.288,22.999 -22.988,22.999 z m 0,-75.034 c -28.746,0 -52.074,23.31 -52.074,52.064 0,28.766 23.328,52.065 52.074,52.065 28.746,0 52.064,-23.3 52.064,-52.065 -0.018,-28.754 -23.318,-52.064 -52.064,-52.064 z"
         id="path2"
         inkscape:connector-curvature="0"
         style="fill:#6e4b93" /><path
         d="m 113.291,445.668 c -12.686,0 -22.984,-10.288 -22.984,-22.999 0,-12.67 10.298,-22.979 22.984,-22.979 12.686,0 22.984,10.289 22.984,22.979 0.009,12.711 -10.289,22.999 -22.984,22.999 z m 0,-75.034 c -28.746,0 -52.05,23.31 -52.05,52.064 0,28.766 23.305,52.065 52.05,52.065 28.75,0 52.06,-23.3 52.06,-52.065 0,-28.754 -23.3,-52.064 -52.06,-52.064 z"
         id="path4"
         inkscape:connector-curvature="0"
         style="fill:#6e4b93" /><path
         d="m 604.339,226.93 c 0,12.744 -10.979,23.072 -24.525,23.072 H 402.905 c -13.536,0 -24.525,-10.328 -24.525,-23.072 V 60.574 c 0,-12.725 10.989,-23.052 24.525,-23.052 h 176.928 c 13.536,0 24.525,10.327 24.525,23.052 V 226.93 Z M 604.786,7.23 H 379.119 c -17.251,0 -31.274,13.211 -31.274,29.523 v 213.059 c 0,16.313 14.014,29.533 31.274,29.533 h 225.667 c 17.241,0 31.273,-13.22 31.273,-29.533 V 36.744 C 636.06,20.441 622.037,7.23 604.786,7.23 Z"
         id="path6"
         inkscape:connector-curvature="0"
         style="fill:#6e4b93" /><path
         d="m 474.886,140.655 c 2.918,0.666 6.506,0.895 11.427,0.895 18.204,0 29.445,-9.209 29.445,-24.705 0,-13.931 -9.666,-22.245 -26.752,-22.245 -6.953,0 -11.688,0.677 -14.14,1.353 z M 440.967,71.908 c 10.542,-1.804 25.381,-3.146 46.27,-3.146 21.112,0 36.175,4.041 46.278,12.127 9.666,7.648 16.162,20.212 16.162,35.062 0,14.806 -4.939,27.394 -13.915,35.937 -11.698,10.994 -28.979,15.943 -49.206,15.943 -4.474,0 -8.519,-0.219 -11.67,-0.656 v 54.122 H 440.987 V 71.908 Z"
         id="path8"
         inkscape:connector-curvature="0"
         style="fill:#6e4b93" /><path
         d="m 544.728,480.715 c 0,13.79 -11.961,24.847 -26.781,24.847 H 59.528 c -14.849,0 -26.806,-11.057 -26.806,-24.847 V 366.56 c 0,-13.634 11.957,-24.847 26.806,-24.847 h 458.398 c 14.82,0 26.781,11.213 26.781,24.847 v 114.165 h 0.02 v -0.01 z m 0.135,-171.107 H 60.287 L 160.829,135.915 c 0,0 3.637,-7.119 20.596,-7.119 h 104.038 c 0,0 24.686,1.663 23.791,-15.447 -0.929,-9.092 -5.927,-15.292 -16.683,-15.292 -10.595,0 -138.404,0 -138.404,0 0,0 -6.52,0.297 -13.634,12.564 C 134.183,121.547 45.286,275.534 25.453,310.07 11.062,312.637 0,326.718 0,343.833 v 157.644 c 0,19.08 13.483,34.221 30.131,34.221 h 30.146 v 75.589 c 0,9.364 6.063,16.93 13.629,16.93 h 48.608 c 7.405,0 13.619,-7.565 13.619,-16.93 v -75.589 h 303.492 v 76.152 c 0,9.413 6.049,16.979 13.479,16.979 h 48 c 7.41,0 13.478,-7.566 13.478,-16.979 v -76.152 h 30.282 c 16.668,0 30.146,-15.141 30.146,-34.221 V 343.833 c 0,-18.943 -13.479,-34.225 -30.147,-34.225 z"
         id="path10"
         inkscape:connector-curvature="0"
         style="fill:#6e4b93" /></g></g></svg>