<?xml version="1.0" encoding="UTF-8" standalone="no"?>
<svg
   xmlns:dc="http://purl.org/dc/elements/1.1/"
   xmlns:cc="http://creativecommons.org/ns#"
   xmlns:rdf="http://www.w3.org/1999/02/22-rdf-syntax-ns#"
   xmlns:svg="http://www.w3.org/2000/svg"
   xmlns="http://www.w3.org/2000/svg"
   xmlns:sodipodi="http://sodipodi.sourceforge.net/DTD/sodipodi-0.dtd"
   xmlns:inkscape="http://www.inkscape.org/namespaces/inkscape"
   enable-background="new 0 0 128 128"
   id="Слой_1"
   version="1.1"
   viewBox="0 0 128 128"
   xml:space="preserve"
   sodipodi:docname="icon-4.svg"
   inkscape:version="0.92.3 (2405546, 2018-03-11)"><metadata
     id="metadata11"><rdf:RDF><cc:Work
         rdf:about=""><dc:format>image/svg+xml</dc:format><dc:type
           rdf:resource="http://purl.org/dc/dcmitype/StillImage" /><dc:title></dc:title></cc:Work></rdf:RDF></metadata><defs
     id="defs9" /><sodipodi:namedview
     pagecolor="#ffffff"
     bordercolor="#666666"
     borderopacity="1"
     objecttolerance="10"
     gridtolerance="10"
     guidetolerance="10"
     inkscape:pageopacity="0"
     inkscape:pageshadow="2"
     inkscape:window-width="1920"
     inkscape:window-height="1147"
     id="namedview7"
     showgrid="false"
     inkscape:zoom="1.84375"
     inkscape:cx="-81.898305"
     inkscape:cy="64"
     inkscape:window-x="1272"
     inkscape:window-y="-8"
     inkscape:window-maximized="1"
     inkscape:current-layer="Слой_1" /><g
     id="g4"><path
       d="m 116.5,69.6 -8.2,-8.2 -8.2,8.2 v 7.5 H 97.5 97.1 94.5 V 69.6 L 93.4,68.5 C 93,57.4 86.3,47.3 76.2,42.7 c 1.4,-3.4 2.2,-7 2.2,-10.7 0,-14.9 -12.1,-27 -27,-27 -14.9,0 -27,12.1 -27,27 0,0.1 0,0.2 0,0.3 -13.2,5.1 -22,17.9 -22,32.2 0,8.4 3,16.4 8.6,22.7 v 19.7 H 8 v 4 h 3 v 14.9 h 16.4 v -14.9 h 5.9 v 14.9 h 16.4 v -14.9 h 5.9 v 14.9 H 72 v -14.9 h 5.9 v 14.9 h 16.4 v -14.9 h 2.6 0.4 2.6 v 14.9 h 16.4 v -14.9 h 3.4 v -4 h -3.4 V 81.1 h 3.4 v -4 h -3.4 v -7.5 z m -89.3,-34 1.5,-0.5 -0.1,-1.5 c 0,-0.5 -0.1,-1.1 -0.1,-1.6 0,-12.7 10.3,-23 23,-23 12.7,0 23,10.3 23,23 0,3.8 -0.9,7.5 -2.7,10.8 l -1.1,2 2.1,0.8 c 8.1,3 14.1,10 16,18.3 l -2.5,-2.5 -8.2,8.2 v 7.5 H 72.2 V 69.6 L 64,61.4 55.8,69.6 v 7.5 H 49.9 V 70.4 69.6 40.4 h -4 V 56.3 L 29,47.8 l -1.8,3.6 18.7,9.4 v 4.8 l -4.2,-4.2 -8.2,8.2 v 7.5 h -5.9 v -7.5 l -8.2,-8.2 -8.2,8.2 v 7.5 h -2 C 7.4,73.2 6.5,68.9 6.5,64.5 6.5,51.4 14.8,39.8 27.2,35.6 Z m 45,45.5 h 5.9 v 9.6 c -1.9,1.2 -3.8,2.2 -5.9,2.9 z m -22.4,0 h 5.9 V 95 h -5.9 z m -22.3,0 h 5.9 v 13.7 c -2,-0.2 -4,-0.7 -5.9,-1.3 z m -4,40.7 H 15.1 V 71.2 l 4.2,-4.2 4.2,4.2 z m 4,-14.9 v -9.2 c 1.9,0.6 3.9,0.9 5.9,1.1 v 8.1 z m 18.3,14.9 H 37.4 V 71.2 l 4.2,-4.2 4.2,4.2 z m 4,-14.9 V 99 h 5.9 v 7.9 z m 18.4,14.9 H 59.8 V 71.2 L 64,67 l 4.2,4.2 z m 4,-14.9 v -9.1 c 2.1,-0.6 4.1,-1.4 5.9,-2.4 v 11.5 z m 18.3,14.9 H 82.1 V 71.2 l 4.2,-4.2 4.2,4.2 z m 7,-14.9 H 97.1 94.5 V 81.1 h 2.6 0.4 2.6 v 25.8 z m 15,14.9 h -8.4 V 71.2 l 4.2,-4.2 4.2,4.2 z"
       id="path2"
       inkscape:connector-curvature="0"
       style="fill:#6e4b93" /></g></svg>