<?xml version="1.0" encoding="UTF-8" standalone="no"?>
<svg
   xmlns:dc="http://purl.org/dc/elements/1.1/"
   xmlns:cc="http://creativecommons.org/ns#"
   xmlns:rdf="http://www.w3.org/1999/02/22-rdf-syntax-ns#"
   xmlns:svg="http://www.w3.org/2000/svg"
   xmlns="http://www.w3.org/2000/svg"
   xmlns:sodipodi="http://sodipodi.sourceforge.net/DTD/sodipodi-0.dtd"
   xmlns:inkscape="http://www.inkscape.org/namespaces/inkscape"
   enable-background="new 0 0 128 128"
   id="Слой_1"
   version="1.1"
   viewBox="0 0 128 128"
   xml:space="preserve"
   sodipodi:docname="icon-3.svg"
   inkscape:version="0.92.3 (2405546, 2018-03-11)"><metadata
     id="metadata11"><rdf:RDF><cc:Work
         rdf:about=""><dc:format>image/svg+xml</dc:format><dc:type
           rdf:resource="http://purl.org/dc/dcmitype/StillImage" /></cc:Work></rdf:RDF></metadata><defs
     id="defs9" /><sodipodi:namedview
     pagecolor="#ffffff"
     bordercolor="#666666"
     borderopacity="1"
     objecttolerance="10"
     gridtolerance="10"
     guidetolerance="10"
     inkscape:pageopacity="0"
     inkscape:pageshadow="2"
     inkscape:window-width="1920"
     inkscape:window-height="1027"
     id="namedview7"
     showgrid="false"
     inkscape:zoom="1.84375"
     inkscape:cx="-66.711864"
     inkscape:cy="64"
     inkscape:window-x="-8"
     inkscape:window-y="-8"
     inkscape:window-maximized="1"
     inkscape:current-layer="Слой_1" /><g
     id="g4"><path
       d="M 71,122 V 98.2 c 3.2,-0.8 6.3,-2.1 9,-3.9 v 6.7 h 29 V 72 H 93.4 c 0.1,-0.8 0.1,-1.7 0.1,-2.5 0,-8.6 -3.8,-16.6 -10,-22.1 l 30.5,-30.6 10,10 V 21.1 L 114,11.1 80.3,44.9 C 79.4,44.3 78.5,43.8 77.6,43.3 L 114,6.8 l 10,10 v -5.7 l -10,-10 -36,36 c 0.3,-1.7 0.5,-3.4 0.5,-5.2 0,-14.9 -12.1,-27 -27,-27 -14.9,0 -27,12.1 -27,27 0,0.1 0,0.2 0,0.3 C 11.3,37.3 2.5,50.1 2.5,64.4 2.5,83.5 18,99 37,99 h 9 v 27 h 4 V 99 h 14 c 1,0 2,-0.1 3,-0.2 V 126 h 57 v -4 z M 105,76 V 97 H 84 V 91.2 C 88.3,87.2 91.4,82 92.8,76 Z M 64,95 H 50 V 85.9 L 68.9,76.5 67.1,72.9 50,81.4 V 42 H 46 V 61.4 L 28.9,52.8 27.1,56.4 46,65.9 V 95 H 37 C 20.2,95 6.5,81.3 6.5,64.5 6.5,51.4 14.8,39.8 27.2,35.6 l 1.5,-0.5 -0.1,-1.5 c 0,-0.5 -0.1,-1.1 -0.1,-1.6 0,-12.7 10.3,-23 23,-23 12.7,0 23,10.3 23,23 0,3.8 -0.9,7.5 -2.7,10.8 l -1.1,2 2.1,0.8 C 82.7,49.3 89.4,58.9 89.4,69.5 89.5,83.6 78.1,95 64,95 Z"
       id="path2"
       inkscape:connector-curvature="0"
       style="fill:#6e4b93" /></g></svg>