<?xml version="1.0" encoding="UTF-8" standalone="no"?>
<svg
   xmlns:dc="http://purl.org/dc/elements/1.1/"
   xmlns:cc="http://creativecommons.org/ns#"
   xmlns:rdf="http://www.w3.org/1999/02/22-rdf-syntax-ns#"
   xmlns:svg="http://www.w3.org/2000/svg"
   xmlns="http://www.w3.org/2000/svg"
   xmlns:sodipodi="http://sodipodi.sourceforge.net/DTD/sodipodi-0.dtd"
   xmlns:inkscape="http://www.inkscape.org/namespaces/inkscape"
   enable-background="new 0 0 128 128"
   id="Слой_1"
   version="1.1"
   viewBox="0 0 128 128"
   xml:space="preserve"
   sodipodi:docname="icon-1.svg"
   inkscape:version="0.92.3 (2405546, 2018-03-11)"><metadata
     id="metadata3745"><rdf:RDF><cc:Work
         rdf:about=""><dc:format>image/svg+xml</dc:format><dc:type
           rdf:resource="http://purl.org/dc/dcmitype/StillImage" /></cc:Work></rdf:RDF></metadata><defs
     id="defs3743" /><sodipodi:namedview
     pagecolor="#ffffff"
     bordercolor="#666666"
     borderopacity="1"
     objecttolerance="10"
     gridtolerance="10"
     guidetolerance="10"
     inkscape:pageopacity="0"
     inkscape:pageshadow="2"
     inkscape:window-width="1920"
     inkscape:window-height="1027"
     id="namedview3741"
     showgrid="false"
     inkscape:zoom="2.3699126"
     inkscape:cx="-74.840939"
     inkscape:cy="60.703784"
     inkscape:window-x="-8"
     inkscape:window-y="-8"
     inkscape:window-maximized="1"
     inkscape:current-layer="Слой_1" /><g
     id="g3738"><path
       d="M 6,104 H 2 c 0,9.4 7.6,17 17,17 H 126 V 17 H 21 V 2 H 19 C 9.6,2 2,9.6 2,19 v 85 H 6 C 6,96.8 11.8,91 19,91 h 2 V 21 h 101 v 96 H 19 C 11.8,117 6,111.2 6,104 Z M 17,46.5 c 0,17.5 0,35 0,40.6 C 12.6,87.6 8.7,89.8 6,93 V 19 C 6,12.5 10.8,7.1 17,6.2 Z"
       id="path3730"
       inkscape:connector-curvature="0"
       style="fill:#6e4b93" /><path
       d="m 27,2 v 10 h 87.4 L 126.1,7 114.4,2 Z m 4,4 h 6 v 2 h -6 z m 82.6,2 H 41 V 6 h 72.6 l 2.3,1 z"
       id="path3732"
       inkscape:connector-curvature="0"
       style="fill:#6e4b93" /><polygon
       points="95.5,102 95.5,72.5 91.5,72.5 91.5,98 50.5,98 50.5,72.5 46.5,72.5 46.5,102 "
       id="polygon3734"
       style="fill:#6e4b93" /><polygon
       points="84,50.2 71,37.2 39.6,68.6 42.4,71.4 71,42.8 88,59.8 88,47 91.5,47 91.5,63.3 99.6,71.4 102.4,68.6 95.5,61.7 95.5,43 84,43 "
       id="polygon3736"
       style="fill:#6e4b93" /></g></svg>