<?xml version="1.0" encoding="UTF-8" standalone="no"?>
<svg
   xmlns:dc="http://purl.org/dc/elements/1.1/"
   xmlns:cc="http://creativecommons.org/ns#"
   xmlns:rdf="http://www.w3.org/1999/02/22-rdf-syntax-ns#"
   xmlns:svg="http://www.w3.org/2000/svg"
   xmlns="http://www.w3.org/2000/svg"
   xmlns:sodipodi="http://sodipodi.sourceforge.net/DTD/sodipodi-0.dtd"
   xmlns:inkscape="http://www.inkscape.org/namespaces/inkscape"
   enable-background="new 0 0 128 128"
   id="Слой_1"
   version="1.1"
   viewBox="0 0 128 128"
   xml:space="preserve"
   sodipodi:docname="icon-2.svg"
   inkscape:version="0.92.3 (2405546, 2018-03-11)"><metadata
     id="metadata23"><rdf:RDF><cc:Work
         rdf:about=""><dc:format>image/svg+xml</dc:format><dc:type
           rdf:resource="http://purl.org/dc/dcmitype/StillImage" /></cc:Work></rdf:RDF></metadata><defs
     id="defs21" /><sodipodi:namedview
     pagecolor="#ffffff"
     bordercolor="#666666"
     borderopacity="1"
     objecttolerance="10"
     gridtolerance="10"
     guidetolerance="10"
     inkscape:pageopacity="0"
     inkscape:pageshadow="2"
     inkscape:window-width="1920"
     inkscape:window-height="1027"
     id="namedview19"
     showgrid="false"
     inkscape:zoom="1.84375"
     inkscape:cx="-35.254237"
     inkscape:cy="64"
     inkscape:window-x="-8"
     inkscape:window-y="-8"
     inkscape:window-maximized="1"
     inkscape:current-layer="Слой_1" /><g
     id="g2" /><path
     d="M 126.8,64 111,48.2 V 12 H 92 V 29.2 L 64,1.2 1.2,64 9,71.8 l 8,-8 V 126 h 94 V 63.8 l 8,8 z M 6.8,64 64,6.8 96,38.8 V 16 h 11 V 49.8 L 121.2,64 119,66.2 64,11.2 9,66.2 Z M 107,60 v 62 H 21 V 60 H 20.8 L 64,16.8 107.2,60 Z"
     id="path4"
     inkscape:connector-curvature="0"
     style="fill:#6e4b93" /><g
     id="g16"><g
       id="g8"><path
         d="M 77.2,99"
         id="path6"
         inkscape:connector-curvature="0"
         style="fill:#6e4b93" /></g><path
       d="m 94.2,84 c 0,-1.9 -0.8,-3.6 -2,-4.9 1.2,-1.2 2,-2.8 2,-4.6 0,-3.6 -2.9,-6.5 -6.5,-6.5 h -12 c -0.3,0 -0.5,-0.2 -0.5,-0.5 V 54 c 0,-5 -4,-9 -9,-9 -1.9,0 -3.5,1.6 -3.5,3.5 v 9.2 c -1.9,5.4 -5.2,10.1 -9.6,13.6 V 71 H 33.8 v 38 h 19.4 v -2.3 c 3,1.5 6.2,2.3 9.6,2.3 h 19.5 c 3.3,0 6,-2.7 6,-6 0,-0.9 -0.2,-1.7 -0.5,-2.5 2.6,-1 4.5,-3.6 4.5,-6.5 0,-1.5 -0.5,-2.9 -1.3,-4.1 1.9,-1.2 3.2,-3.4 3.2,-5.9 z M 49.1,105 H 37.8 V 75 h 11.4 v 30 z m 36.1,-8 h -3 v 4 c 1.1,0 2,0.9 2,2 0,1.1 -0.9,2 -2,2 H 62.7 c -3.4,0 -6.7,-1 -9.6,-2.9 V 76.4 l 2.4,-1.9 c 5.2,-4.1 9,-9.6 11.1,-15.9 l 0.1,-0.3 V 49 c 2.5,0.3 4.5,2.4 4.5,5 v 13.5 c 0,2.5 2,4.5 4.5,4.5 h 12 c 1.4,0 2.5,1.1 2.5,2.5 0,1.4 -1.1,2.5 -2.5,2.5 h -0.5 v 4 c 1.7,0 3,1.3 3,3 0,1.7 -1.3,3 -3,3 h -1 v 0.1 c -0.3,0 -0.7,-0.1 -1,-0.1 v 4 c 1.7,0 3,1.3 3,3 0,1.7 -1.3,3 -3,3 z"
       id="path10"
       inkscape:connector-curvature="0"
       style="fill:#6e4b93" /><g
       id="g14"><path
         d="M 83.2,99"
         id="path12"
         inkscape:connector-curvature="0"
         style="fill:#6e4b93" /></g></g></svg>